<svg width="36" height="13" viewBox="0 0 36 13" fill="none" xmlns="http://www.w3.org/2000/svg">
<g clip-path="url(#clip0_989_4985)">
<path d="M24.7028 7.01334C24.4412 6.56132 24.0876 6.16918 23.6649 5.86223C23.729 5.77179 23.7886 5.67868 23.8436 5.5829C24.1574 5.0424 24.3298 4.43153 24.3447 3.80681C24.3596 3.18209 24.2166 2.5637 23.9289 2.00886C23.6412 1.45403 23.2182 0.980661 22.6989 0.632566C22.1796 0.284472 21.5808 0.072893 20.958 0.0174074C20.8486 0.00710414 20.7346 0.00195312 20.6189 0.00195312H14.3184V12.5949H21.478C22.045 12.5964 22.6046 12.4671 23.1133 12.2171C23.1923 12.1787 23.2691 12.1381 23.3424 12.0969C23.766 11.8526 24.1373 11.5273 24.4351 11.1396C24.7328 10.7519 24.9513 10.3094 25.0779 9.83734C25.2044 9.36526 25.2367 8.87288 25.1729 8.38833C25.109 7.90378 24.9502 7.43655 24.7056 7.01334H24.7028ZM22.3189 10.0322C22.0749 10.2105 21.7803 10.3062 21.478 10.3052H16.6095V7.44322H21.478C21.7803 7.44336 22.0748 7.53911 22.3193 7.71674C22.5638 7.89438 22.7458 8.14478 22.8392 8.4321C22.9326 8.71941 22.9326 9.0289 22.8393 9.31622C22.7459 9.60355 22.5639 9.85397 22.3194 10.0316L22.3189 10.0322ZM21.3343 4.96184C21.1169 5.08776 20.8701 5.15392 20.6189 5.1536H16.6095V2.29157H20.6189C20.8704 2.29097 21.1175 2.35735 21.3348 2.4839C21.5524 2.60954 21.733 2.79017 21.8586 3.00764C21.9841 3.22512 22.0503 3.47178 22.0503 3.72287C22.0503 3.97396 21.9841 4.22062 21.8586 4.4381C21.733 4.65557 21.5524 4.8362 21.3348 4.96184H21.3343Z" fill="#003328"/>
<path d="M10.3099 0.00229011V7.15735C9.76033 7.31757 9.23205 7.54339 8.73652 7.82993C8.69299 7.85454 8.64946 7.8803 8.6065 7.90606C8.24262 8.12673 7.8993 8.37961 7.58066 8.66163C7.44835 8.77611 7.32062 8.8986 7.20263 9.01938C7.11213 9.11039 7.02507 9.2037 6.94488 9.29585C6.70936 9.56248 6.49398 9.84622 6.30051 10.1447C6.1073 9.8467 5.89231 9.56335 5.65729 9.297C5.57595 9.2037 5.48889 9.1104 5.40069 9.02167C5.28098 8.89861 5.15267 8.77726 5.02208 8.6622C4.70268 8.38019 4.35881 8.12715 3.99453 7.90606C3.95157 7.8803 3.90804 7.85454 3.8668 7.83107C3.37059 7.54398 2.84153 7.31778 2.2911 7.15735V0.00229011H0V9.16077H0.286387C1.1864 9.15922 2.06904 9.40838 2.83523 9.88028C3.0829 10.032 3.31622 10.206 3.5323 10.4C3.6675 10.52 3.79546 10.6478 3.91548 10.783C3.98536 10.8593 4.05047 10.9356 4.1108 11.0119C4.44112 11.4299 4.70024 11.8995 4.87774 12.4017L4.94476 12.5929H7.65627L7.72386 12.4017C7.90113 11.8994 8.16027 11.4298 8.4908 11.0119L8.51314 10.9833C8.57042 10.9118 8.6277 10.8436 8.68497 10.7795C8.8053 10.6449 8.93324 10.5172 9.06816 10.3972C9.95991 9.59818 11.1158 9.15698 12.3135 9.15848H12.5999V0L10.3099 0.00229011Z" fill="#003328"/>
<path d="M28.6368 10.3033V0H26.3457V12.5929H30.8511H35.5101V10.3033H28.6368Z" fill="#003328"/>
</g>
<defs>
<clipPath id="clip0_989_4985">
<rect width="35.512" height="12.5929" fill="white"/>
</clipPath>
</defs>
</svg>
