<svg width="100" height="17" viewBox="0 0 100 17" fill="none" xmlns="http://www.w3.org/2000/svg">
<g clip-path="url(#clip0_989_4974)">
<g clip-path="url(#clip1_989_4974)">
<path d="M50.212 6.51562H49.1105L47.514 2.38819H48.5164L49.6612 5.56266L50.7998 2.38819H51.8023L50.212 6.51562ZM55.8468 6.51562H52.926V2.38819H55.8468V3.1617H53.8047V4.03421H55.8035V4.80772H53.8047V5.74212H55.8468V6.51562ZM60.6178 6.51562H59.6092L58.7985 5.04906H58.155V6.51562H57.2763V2.38819H59.2069C59.6319 2.38819 59.9681 2.51195 60.2156 2.75947C60.4672 3.007 60.5931 3.32671 60.5931 3.71862C60.5931 4.0569 60.5044 4.33124 60.327 4.54163C60.1537 4.75203 59.9413 4.8861 59.6896 4.94386L60.6178 6.51562ZM59.077 4.27555C59.2585 4.27555 59.407 4.22604 59.5225 4.12703C59.638 4.0239 59.6958 3.88776 59.6958 3.71862C59.6958 3.54948 59.638 3.41541 59.5225 3.3164C59.407 3.21327 59.2585 3.1617 59.077 3.1617H58.155V4.27555H59.077ZM65.6894 6.51562H64.8417L62.8739 3.82382V6.51562H61.9951V2.38819H62.8986L64.8107 4.98099V2.38819H65.6894V6.51562ZM71.0948 6.51562H70.0923L69.8386 5.81637H68.0688L67.8089 6.51562H66.8065L68.403 2.38819H69.5045L71.0948 6.51562ZM69.5973 5.04287L68.9537 3.26689L68.3102 5.04287H69.5973ZM74.0057 6.58988C73.3787 6.58988 72.8548 6.39186 72.434 5.99583C72.0173 5.59567 71.809 5.08206 71.809 4.455C71.809 3.82795 72.0173 3.3164 72.434 2.92036C72.8548 2.5202 73.3787 2.32012 74.0057 2.32012C74.7772 2.32012 75.3527 2.65634 75.7322 3.32878L74.9773 3.70006C74.8865 3.52679 74.7524 3.38447 74.575 3.27308C74.4018 3.15757 74.212 3.09982 74.0057 3.09982C73.6303 3.09982 73.3209 3.2277 73.0775 3.48348C72.8341 3.73925 72.7124 4.06309 72.7124 4.455C72.7124 4.84691 72.8341 5.17075 73.0775 5.42653C73.3209 5.6823 73.6303 5.81019 74.0057 5.81019C74.212 5.81019 74.4018 5.75449 74.575 5.64311C74.7524 5.53172 74.8865 5.38734 74.9773 5.20994L75.7322 5.57504C75.3403 6.2516 74.7648 6.58988 74.0057 6.58988ZM80.2465 6.12578C79.933 6.43518 79.471 6.58988 78.8604 6.58988C78.2499 6.58988 77.7857 6.43518 77.4681 6.12578C77.1546 5.81225 76.9978 5.39352 76.9978 4.8696V2.38819H77.8889V4.83866C77.8889 5.13569 77.9735 5.3729 78.1426 5.55029C78.3117 5.72355 78.551 5.81019 78.8604 5.81019C79.1698 5.81019 79.407 5.72355 79.572 5.55029C79.7412 5.3729 79.8257 5.13569 79.8257 4.83866V2.38819H80.723V4.86341C80.723 5.39559 80.5642 5.81637 80.2465 6.12578ZM84.9024 6.51562H82.2787V2.38819H83.1574V5.74212H84.9024V6.51562ZM90.1093 6.51562H89.1068L88.8531 5.81637H87.0833L86.8234 6.51562H85.821L87.4175 2.38819H88.5189L90.1093 6.51562ZM88.6118 5.04287L87.9682 3.26689L87.3247 5.04287H88.6118ZM94.5745 6.51562H93.5659L92.7553 5.04906H92.1117V6.51562H91.233V2.38819H93.1637C93.5886 2.38819 93.9248 2.51195 94.1723 2.75947C94.424 3.007 94.5498 3.32671 94.5498 3.71862C94.5498 4.0569 94.4611 4.33124 94.2837 4.54163C94.1104 4.75203 93.898 4.8861 93.6463 4.94386L94.5745 6.51562ZM93.0337 4.27555C93.2152 4.27555 93.3637 4.22604 93.4793 4.12703C93.5948 4.0239 93.6525 3.88776 93.6525 3.71862C93.6525 3.54948 93.5948 3.41541 93.4793 3.3164C93.3637 3.21327 93.2152 3.1617 93.0337 3.1617H92.1117V4.27555H93.0337ZM50.1934 14.5156H47.9533V10.3882H50.1253C50.5008 10.3882 50.7916 10.4913 50.9979 10.6976C51.2083 10.8997 51.3134 11.1473 51.3134 11.4402C51.3134 11.6918 51.2454 11.9022 51.1092 12.0713C50.9731 12.2405 50.804 12.3457 50.6018 12.3869C50.8246 12.4199 51.0123 12.5334 51.1649 12.7273C51.3176 12.9212 51.3939 13.146 51.3939 13.4018C51.3939 13.7236 51.2887 13.9896 51.0783 14.2C50.8679 14.4104 50.5729 14.5156 50.1934 14.5156ZM49.9335 12.0404C50.082 12.0404 50.1996 11.9991 50.2862 11.9166C50.3729 11.8341 50.4162 11.7269 50.4162 11.5949C50.4162 11.4629 50.3708 11.3556 50.28 11.2731C50.1934 11.1865 50.0779 11.1431 49.9335 11.1431H48.832V12.0404H49.9335ZM49.9645 13.7545C50.1295 13.7545 50.2594 13.7132 50.3543 13.6307C50.4492 13.5441 50.4966 13.4265 50.4966 13.278C50.4966 13.1419 50.4492 13.0284 50.3543 12.9377C50.2594 12.8428 50.1295 12.7953 49.9645 12.7953H48.832V13.7545H49.9645ZM56.0478 14.1258C55.7343 14.4352 55.2723 14.5899 54.6617 14.5899C54.0512 14.5899 53.5871 14.4352 53.2694 14.1258C52.9559 13.8122 52.7991 13.3935 52.7991 12.8696V10.3882H53.6902V12.8387C53.6902 13.1357 53.7748 13.3729 53.9439 13.5503C54.113 13.7236 54.3523 13.8102 54.6617 13.8102C54.9711 13.8102 55.2083 13.7236 55.3733 13.5503C55.5425 13.3729 55.6271 13.1357 55.6271 12.8387V10.3882H56.5243V12.8634C56.5243 13.3956 56.3655 13.8164 56.0478 14.1258ZM58.9587 14.5156H58.08V10.3882H58.9587V14.5156ZM63.1444 14.5156H60.5206V10.3882H61.3994V13.7421H63.1444V14.5156ZM66.1297 14.5156H64.5023V10.3882H66.1297C66.7774 10.3882 67.3034 10.578 67.7077 10.9575C68.1161 11.337 68.3203 11.8362 68.3203 12.455C68.3203 13.0738 68.1182 13.573 67.7139 13.9525C67.3096 14.3279 66.7815 14.5156 66.1297 14.5156ZM66.1297 13.7421C66.5258 13.7421 66.8393 13.6184 67.0703 13.3708C67.3055 13.1233 67.423 12.818 67.423 12.455C67.423 12.0755 67.3096 11.7661 67.0827 11.5268C66.8558 11.2834 66.5381 11.1617 66.1297 11.1617H65.381V13.7421H66.1297ZM74.636 14.5156H72.0123V10.3882H72.891V13.7421H74.636V14.5156ZM76.8726 14.5156H75.9939V10.3882H76.8726V14.5156ZM82.9086 14.5156H82.0237V11.6258L80.8603 14.5156H80.4766L79.3133 11.6258V14.5156H78.4346V10.3882H79.666L80.6685 12.882L81.6709 10.3882H82.9086V14.5156ZM85.3496 14.5156H84.4708V10.3882H85.3496V14.5156ZM88.7494 14.5156H87.8645V11.1617H86.6578V10.3882H89.9498V11.1617H88.7494V14.5156ZM94.1765 14.5156H91.2557V10.3882H94.1765V11.1617H92.1344V12.0342H94.1332V12.8077H92.1344V13.7421H94.1765V14.5156ZM97.2334 14.5156H95.606V10.3882H97.2334C97.8811 10.3882 98.4071 10.578 98.8114 10.9575C99.2198 11.337 99.424 11.8362 99.424 12.455C99.424 13.0738 99.2219 13.573 98.8176 13.9525C98.4133 14.3279 97.8852 14.5156 97.2334 14.5156ZM97.2334 13.7421C97.6295 13.7421 97.943 13.6184 98.174 13.3708C98.4092 13.1233 98.5267 12.818 98.5267 12.455C98.5267 12.0755 98.4133 11.7661 98.1864 11.5268C97.9595 11.2834 97.6418 11.1617 97.2334 11.1617H96.4847V13.7421H97.2334Z" fill="#003328"/>
<g clip-path="url(#clip2_989_4974)">
<path d="M24.9078 8.91764C24.6462 8.46562 24.2927 8.07347 23.87 7.76653C23.9341 7.67609 23.9937 7.58298 24.0487 7.4872C24.3625 6.9467 24.5348 6.33583 24.5497 5.71111C24.5647 5.08639 24.4217 4.468 24.134 3.91316C23.8463 3.35832 23.4232 2.88496 22.9039 2.53686C22.3846 2.18877 21.7859 1.97719 21.163 1.9217C21.0536 1.9114 20.9397 1.90625 20.824 1.90625H14.5234V14.4992H21.6831C22.25 14.5007 22.8097 14.3714 23.3184 14.1214C23.3974 14.083 23.4742 14.0424 23.5475 14.0012C23.9711 13.7569 24.3424 13.4316 24.6401 13.0439C24.9379 12.6562 25.1563 12.2137 25.2829 11.7416C25.4095 11.2696 25.4418 10.7772 25.3779 10.2926C25.3141 9.80808 25.1553 9.34085 24.9107 8.91764H24.9078ZM22.5239 11.9365C22.28 12.1148 21.9854 12.2105 21.6831 12.2095H16.8145V9.34751H21.6831C21.9854 9.34766 22.2799 9.44341 22.5244 9.62104C22.7689 9.79867 22.9509 10.0491 23.0443 10.3364C23.1377 10.6237 23.1377 10.9332 23.0443 11.2205C22.951 11.5078 22.769 11.7583 22.5245 11.9359L22.5239 11.9365ZM21.5393 6.86614C21.322 6.99205 21.0752 7.05822 20.824 7.05789H16.8145V4.19587H20.824C21.0755 4.19526 21.3226 4.26165 21.5399 4.3882C21.7575 4.51384 21.9381 4.69446 22.0636 4.91194C22.1892 5.12941 22.2553 5.37608 22.2553 5.62717C22.2553 5.87825 22.1892 6.12492 22.0636 6.34239C21.9381 6.55987 21.7575 6.7405 21.5399 6.86614H21.5393Z" fill="#003328"/>
<path d="M10.515 1.90659V9.06165C9.96541 9.22187 9.43713 9.44769 8.9416 9.73422C8.89807 9.75884 8.85454 9.78459 8.81158 9.81035C8.4477 10.031 8.10438 10.2839 7.78574 10.5659C7.65343 10.6804 7.5257 10.8029 7.40771 10.9237C7.31721 11.0147 7.23015 11.108 7.14996 11.2002C6.91444 11.4668 6.69906 11.7505 6.50559 12.049C6.31238 11.751 6.09738 11.4676 5.86237 11.2013C5.78103 11.108 5.69397 11.0147 5.60576 10.926C5.48605 10.8029 5.35775 10.6816 5.22716 10.5665C4.90776 10.2845 4.56389 10.0314 4.1996 9.81035C4.15665 9.78459 4.11311 9.75884 4.07188 9.73537C3.57567 9.44828 3.04661 9.22207 2.49617 9.06165V1.90659H0.205078V11.0651H0.491465C1.39148 11.0635 2.27412 11.3127 3.04031 11.7846C3.28798 11.9363 3.5213 12.1103 3.73738 12.3043C3.87258 12.4243 4.00053 12.5521 4.12056 12.6873C4.19044 12.7636 4.25554 12.8399 4.31588 12.9162C4.6462 13.3342 4.90532 13.8038 5.08282 14.306L5.14984 14.4972H7.86135L7.92894 14.306C8.10621 13.8037 8.36535 13.3341 8.69588 12.9162L8.71822 12.8876C8.7755 12.816 8.83277 12.7479 8.89005 12.6838C9.01038 12.5492 9.13831 12.4215 9.27324 12.3015C10.165 11.5025 11.3209 11.0613 12.5186 11.0628H12.805V1.9043L10.515 1.90659Z" fill="#003328"/>
<path d="M28.8419 12.2076V1.9043H26.5508V14.4972H31.0562H35.7152V12.2076H28.8419Z" fill="#003328"/>
</g>
<line x1="41.9351" y1="0.515625" x2="41.9351" y2="16.5874" stroke="#003328" stroke-width="0.60854"/>
</g>
</g>
<defs>
<clipPath id="clip0_989_4974">
<rect width="100" height="16.9935" fill="white"/>
</clipPath>
<clipPath id="clip1_989_4974">
<rect width="99.7747" height="16.6291" fill="white" transform="translate(0.0371094 0.148438)"/>
</clipPath>
<clipPath id="clip2_989_4974">
<rect width="35.512" height="12.5929" fill="white" transform="translate(0.205078 1.9043)"/>
</clipPath>
</defs>
</svg>
